<svg xmlns="http://www.w3.org/2000/svg" width="15" height="15.052" viewBox="0 0 15 15.052"><defs><style>.a{fill:#f5f6fa;}</style></defs><g transform="translate(0 0)"><path class="a" d="M808.961,566.288v-3.252A.46.46,0,0,1,809,562.8a.673.673,0,0,1,.241-.112l.155-.035v3.63h.619v-3.7h.4v3.7h.619v-3.716h8.136a2.8,2.8,0,0,1,1.436.387A3.043,3.043,0,0,1,821.664,564a2.758,2.758,0,0,1,.422,1.411q.016.43.017,1.032-.017,1.274-.017,1.049h-4.61a.3.3,0,0,1-.241-.1,3.963,3.963,0,0,0-1.7-.929,3.715,3.715,0,0,0-1.892.009,4.033,4.033,0,0,0-1.7.938.248.248,0,0,1-.172.086h-4.558l-.086-.017v-.654q-.017.205-.017-.792a7.6,7.6,0,0,1,.035-.791,2.786,2.786,0,0,1,1.153-2.081l.069-.017v3.148h.6Zm8.773,1.668h4.352v6.76a2.827,2.827,0,0,1-.4,1.462,2.908,2.908,0,0,1-1.067,1.058,2.876,2.876,0,0,1-1.462.387h-9.117a2.713,2.713,0,0,1-1.462-.379,3.036,3.036,0,0,1-1.075-1.066,2.781,2.781,0,0,1-.4-1.462v-6.743h4.352a3.786,3.786,0,0,0-.482,3.475,3.91,3.91,0,0,0,3.087,2.52,3.88,3.88,0,0,0,1.643-.129,3.758,3.758,0,0,0,1.445-.809,3.653,3.653,0,0,0,.963-1.376,3.88,3.88,0,0,0,.292-1.788A4.167,4.167,0,0,0,817.734,567.956Zm-3.131,5.161a3,3,0,0,1-1.5-.387,2.845,2.845,0,0,1-1.084-1.066,2.963,2.963,0,0,1,0-2.958,2.971,2.971,0,0,1,1.084-1.084,2.887,2.887,0,0,1,1.488-.4,2.845,2.845,0,0,1,1.479.4,3,3,0,0,1,1.075,1.084,2.933,2.933,0,0,1-1.075,4.024A2.918,2.918,0,0,1,814.6,573.117Zm2.167-2.941a2.2,2.2,0,0,0-1.084-1.892,2.186,2.186,0,0,0-2.185,0,2.186,2.186,0,0,0-.791.792,2.188,2.188,0,0,0,0,2.184,2.239,2.239,0,0,0,.791.8,2.073,2.073,0,0,0,1.092.3,2.119,2.119,0,0,0,1.092-.293,2.176,2.176,0,0,0,.791-.791A2.134,2.134,0,0,0,816.77,570.176Zm3.957-5.075v-.792a.475.475,0,0,0-.129-.352.454.454,0,0,0-.335-.129q-.792-.017-1.6,0a.433.433,0,0,0-.344.137.53.53,0,0,0-.12.361v1.583a.476.476,0,0,0,.129.352.454.454,0,0,0,.336.129h1.582a.446.446,0,0,0,.482-.482Z" transform="translate(-807.103 -562.572)"/></g></svg>