<svg xmlns="http://www.w3.org/2000/svg" width="15" height="12.175" viewBox="0 0 15 12.175"><defs><style>.a{fill:#f5f6fa;}</style></defs><g transform="translate(0 0)"><path class="a" d="M964.689,1143.9v.394a8.9,8.9,0,0,1-.565,3.082,9.184,9.184,0,0,1-1.678,2.808,8.332,8.332,0,0,1-2.74,2.056,8.939,8.939,0,0,1-3.75.787,8.763,8.763,0,0,1-2.5-.36,8.5,8.5,0,0,1-2.226-1.01q.36.034.736.034a6.113,6.113,0,0,0,2.038-.342,6.392,6.392,0,0,0,1.781-.959,3.075,3.075,0,0,1-1.781-.625,2.964,2.964,0,0,1-1.079-1.515,3.052,3.052,0,0,0,.565.052,3.163,3.163,0,0,0,.8-.1,2.968,2.968,0,0,1-1.25-.574,3.05,3.05,0,0,1-.882-1.079,3.2,3.2,0,0,1-.334-1.361v-.051a2.886,2.886,0,0,0,1.4.394,3.1,3.1,0,0,1-1-1.1,3.008,3.008,0,0,1-.368-1.464,3.059,3.059,0,0,1,.411-1.541,8.781,8.781,0,0,0,6.336,3.219,3.558,3.558,0,0,1-.068-.7,3,3,0,0,1,.411-1.541,3.1,3.1,0,0,1,1.122-1.122,2.967,2.967,0,0,1,1.533-.419,3.049,3.049,0,0,1,2.243.977,5.979,5.979,0,0,0,1.952-.754,2.974,2.974,0,0,1-.522.984,3.157,3.157,0,0,1-.83.728,6.258,6.258,0,0,0,1.781-.5A6.434,6.434,0,0,1,964.689,1143.9Z" transform="translate(-951.23 -1140.849)"/></g></svg>